<svg width="16" height="16" viewBox="0 0 16 16" fill="none" xmlns="http://www.w3.org/2000/svg">
<g id="Group">
<path id="Vector" d="M0.69247 3.16716H2.51629C2.87626 4.49159 4.24172 5.27345 5.56615 4.91349C6.41679 4.68229 7.08128 4.01779 7.31248 3.16716H15.3577C15.7258 3.16716 16.0243 2.86872 16.0243 2.50057C16.0243 2.13242 15.7258 1.83398 15.3577 1.83398H7.31248C6.95252 0.509512 5.58706 -0.272349 4.26262 0.087616C3.41199 0.318812 2.74749 0.98331 2.51629 1.83395H0.69247C0.324319 1.83395 0.0258789 2.13239 0.0258789 2.50054C0.0258789 2.86869 0.324319 3.16716 0.69247 3.16716Z" fill="#DD5313"/>
<path id="Vector_2" d="M15.3577 7.33341H13.5339C13.1746 6.00916 11.8099 5.22686 10.4857 5.58608C9.63435 5.81702 8.96929 6.48205 8.73834 7.33341H0.69247C0.324319 7.33341 0.0258789 7.63185 0.0258789 8C0.0258789 8.36815 0.324319 8.66659 0.69247 8.66659H8.73834C9.09759 9.99084 10.4623 10.7731 11.7865 10.4139C12.6379 10.183 13.3029 9.51794 13.5339 8.66659H15.3577C15.7258 8.66659 16.0243 8.36815 16.0243 8C16.0243 7.63185 15.7258 7.33341 15.3577 7.33341Z" fill="#DD5313"/>
<path id="Vector_3" d="M15.3577 12.8329H7.31248C6.95252 11.5084 5.58706 10.7266 4.26262 11.0865C3.41199 11.3177 2.74749 11.9822 2.51629 12.8329H0.69247C0.324319 12.8329 0.0258789 13.1313 0.0258789 13.4995C0.0258789 13.8676 0.324319 14.1661 0.69247 14.1661H2.51629C2.87626 15.4905 4.24172 16.2723 5.56615 15.9124C6.41679 15.6812 7.08128 15.0167 7.31248 14.1661H15.3577C15.7258 14.1661 16.0243 13.8676 16.0243 13.4995C16.0243 13.1313 15.7258 12.8329 15.3577 12.8329Z" fill="#DD5313"/>
</g>
</svg>
