<svg width="50" height="50" viewBox="0 0 50 50" fill="none" xmlns="http://www.w3.org/2000/svg">
<g id="icn" opacity="0.5">
<path id="Vector" d="M25.0834 4.16669C19.6251 4.16669 15.1876 8.60419 15.1876 14.0625C15.1876 19.4167 19.3751 23.75 24.8334 23.9375C25.0001 23.9167 25.1667 23.9167 25.2917 23.9375C25.3334 23.9375 25.3542 23.9375 25.3959 23.9375C25.4167 23.9375 25.4167 23.9375 25.4376 23.9375C30.7709 23.75 34.9584 19.4167 34.9792 14.0625C34.9792 8.60419 30.5417 4.16669 25.0834 4.16669Z" fill="white"/>
<path id="Vector_2" d="M35.6667 29.4792C29.8542 25.6042 20.375 25.6042 14.5209 29.4792C11.875 31.25 10.4167 33.6459 10.4167 36.2084C10.4167 38.7709 11.875 41.1459 14.5 42.8959C17.4167 44.8542 21.25 45.8334 25.0834 45.8334C28.9167 45.8334 32.75 44.8542 35.6667 42.8959C38.2917 41.125 39.75 38.75 39.75 36.1667C39.7292 33.6042 38.2917 31.2292 35.6667 29.4792Z" fill="white"/>
</g>
</svg>
