<svg width="50" height="50" viewBox="0 0 50 50" fill="none" xmlns="http://www.w3.org/2000/svg">
<g id="picture 1" opacity="0.5" clip-path="url(#clip0_1156_516)">
<path id="Vector" d="M23.1708 26.1167C22.5904 25.5359 21.9012 25.0751 21.1427 24.7608C20.3841 24.4465 19.5711 24.2847 18.75 24.2847C17.9289 24.2847 17.1158 24.4465 16.3573 24.7608C15.5988 25.0751 14.9096 25.5359 14.3292 26.1167L0.0791626 40.3667C0.271789 42.9794 1.44355 45.4231 3.36015 47.2091C5.27674 48.9951 7.79689 49.9919 10.4167 50H39.5833C41.6244 49.9996 43.6198 49.3958 45.3187 48.2646L23.1708 26.1167Z" fill="white"/>
<path id="Vector_2" d="M37.5 16.6667C39.8012 16.6667 41.6666 14.8012 41.6666 12.5C41.6666 10.1988 39.8012 8.33334 37.5 8.33334C35.1988 8.33334 33.3333 10.1988 33.3333 12.5C33.3333 14.8012 35.1988 16.6667 37.5 16.6667Z" fill="white"/>
<path id="Vector_3" d="M39.5833 0H10.4167C7.65501 0.00330804 5.00741 1.10184 3.05462 3.05463C1.10184 5.00741 0.00330804 7.65501 0 10.4167L0 34.5542L11.3833 23.1708C12.3506 22.2033 13.4991 21.4357 14.7631 20.9121C16.0271 20.3884 17.3818 20.1189 18.75 20.1189C20.1182 20.1189 21.4729 20.3884 22.7369 20.9121C24.0009 21.4357 25.1494 22.2033 26.1167 23.1708L48.2646 45.3188C49.3958 43.6198 49.9996 41.6244 50 39.5833V10.4167C49.9967 7.65501 48.8982 5.00741 46.9454 3.05463C44.9926 1.10184 42.345 0.00330804 39.5833 0ZM37.5 20.8333C35.8518 20.8333 34.2407 20.3446 32.8702 19.4289C31.4998 18.5132 30.4317 17.2117 29.801 15.689C29.1703 14.1663 29.0052 12.4908 29.3268 10.8742C29.6483 9.25774 30.442 7.77288 31.6074 6.60744C32.7729 5.44201 34.2577 4.64833 35.8742 4.32679C37.4908 4.00525 39.1663 4.17027 40.689 4.801C42.2117 5.43174 43.5132 6.49984 44.4289 7.87025C45.3446 9.24066 45.8333 10.8518 45.8333 12.5C45.8333 14.7101 44.9554 16.8298 43.3926 18.3926C41.8298 19.9554 39.7101 20.8333 37.5 20.8333Z" fill="white"/>
</g>
<defs>
<clipPath id="clip0_1156_516">
<rect width="50" height="50" fill="white"/>
</clipPath>
</defs>
</svg>
