<svg width="16" height="16" viewBox="0 0 16 16" fill="none" xmlns="http://www.w3.org/2000/svg">
<g id="calendar-lines 1" clip-path="url(#clip0_1156_732)">
<path id="Vector" d="M0 2.66667V1.83333C0 -0.464167 1.49533 -2.33333 3.33333 -2.33333H4V-3.16667C4 -3.62667 4.298 -4 4.66667 -4C5.03533 -4 5.33333 -3.62667 5.33333 -3.16667V-2.33333H10.6667V-3.16667C10.6667 -3.62667 10.9647 -4 11.3333 -4C11.702 -4 12 -3.62667 12 -3.16667V-2.33333H12.6667C14.5047 -2.33333 16 -0.464167 16 1.83333V2.66667H0ZM16 4.33333V11.8333C16 14.1308 14.5047 16 12.6667 16H3.33333C1.49533 16 0 14.1308 0 11.8333V4.33333H16ZM8 11.8333C8 11.3733 7.702 11 7.33333 11H4C3.63133 11 3.33333 11.3733 3.33333 11.8333C3.33333 12.2933 3.63133 12.6667 4 12.6667H7.33333C7.702 12.6667 8 12.2933 8 11.8333ZM12.6667 8.5C12.6667 8.04 12.3687 7.66667 12 7.66667H4C3.63133 7.66667 3.33333 8.04 3.33333 8.5C3.33333 8.96 3.63133 9.33333 4 9.33333H12C12.3687 9.33333 12.6667 8.96 12.6667 8.5Z" fill="#D1D5DB"/>
</g>
<defs>
<clipPath id="clip0_1156_732">
<rect width="16" height="20" fill="white" transform="translate(0 -4)"/>
</clipPath>
</defs>
</svg>
