<svg width="18" height="18" viewBox="0 0 18 18" fill="none" xmlns="http://www.w3.org/2000/svg">
<g id="messages question 1">
<path id="Vector" d="M6.12637 14.8231C8.52506 15.9366 11.4589 15.5071 13.4387 13.52C15.967 10.9831 15.9712 6.86682 13.4387 4.32507C10.9104 1.78894 6.8031 1.78894 4.27482 4.32507C2.29507 6.31222 1.86634 9.25532 2.97671 11.6621C3.11891 12.0185 3.2296 12.3046 3.2296 12.5822C3.2296 13.3582 2.48352 14.3192 2.9809 14.8183C3.47829 15.3173 4.43594 14.5687 5.20514 14.5645C5.48116 14.5645 5.77189 14.6797 6.12637 14.8231Z" stroke="white" stroke-width="1.44" stroke-linecap="round" stroke-linejoin="round"/>
<path id="Vector_2" d="M8.69482 11.7028L8.699 11.7281" stroke="white" stroke-width="1.44" stroke-linecap="round" stroke-linejoin="round"/>
<path id="Vector_3" d="M8.69524 10.0844C8.68754 9.49331 9.2235 9.24304 9.6221 9.01458C10.1076 8.74609 10.4368 8.31798 10.4368 7.7247C10.4368 6.84538 9.72786 6.13965 8.8571 6.13965C7.98071 6.13965 7.27734 6.84538 7.27734 7.7247" stroke="white" stroke-width="1.44" stroke-linecap="round" stroke-linejoin="round"/>
</g>
</svg>
