<svg width="15" height="16" viewBox="0 0 15 16" fill="none" xmlns="http://www.w3.org/2000/svg">
<g id="link-alt 1" clip-path="url(#clip0_1083_284)">
<path id="Vector" d="M4.93499 10.565C4.56874 10.1994 4.56874 9.60499 4.93499 9.23936C5.30124 8.87311 5.89437 8.87311 6.26062 9.23936C7.08937 10.0681 8.53561 10.0687 9.36436 9.23936L12.4825 6.12124C13.3381 5.26562 13.3381 3.87312 12.4825 3.01749C11.6269 2.16187 10.2344 2.16187 9.37874 3.01749C9.01249 3.38374 8.41936 3.38374 8.05311 3.01749C7.68687 2.65187 7.68687 2.05749 8.05311 1.69187C9.63937 0.10499 12.2219 0.10499 13.8081 1.69187C15.395 3.27874 15.395 5.85999 13.8081 7.44687L10.69 10.565C9.89624 11.3587 8.85437 11.755 7.81249 11.755C6.77062 11.755 5.72812 11.3581 4.93499 10.565ZM4.06999 15.4981C5.11187 15.4981 6.15374 15.1012 6.94749 14.3081C7.31374 13.9425 7.31374 13.3481 6.94749 12.9825C6.58124 12.6162 5.98812 12.6162 5.62187 12.9825C4.76562 13.8387 3.37312 13.8381 2.51812 12.9825C1.66249 12.1269 1.66249 10.7344 2.51812 9.87874L5.61874 6.77812C6.47499 5.92186 7.86749 5.92186 8.72249 6.77812C9.08874 7.14436 9.68186 7.14436 10.0481 6.77812C10.4144 6.41249 10.4144 5.81812 10.0481 5.45249C8.46124 3.86562 5.87999 3.86562 4.29312 5.45249L1.19187 8.55311C-0.39501 10.14 -0.39501 12.7212 1.19187 14.3081C1.98562 15.1019 3.02812 15.4981 4.06999 15.4981Z" fill="white"/>
</g>
<defs>
<clipPath id="clip0_1083_284">
<rect width="15" height="15" fill="white" transform="translate(0 0.5)"/>
</clipPath>
</defs>
</svg>
