<svg width="16" height="16" viewBox="0 0 16 16" fill="none" xmlns="http://www.w3.org/2000/svg">
<g id="Group">
<path id="Vector" d="M6.93958 13.0575C5.88088 14.1554 4.15675 14.2566 2.97684 13.2902C2.27414 12.6819 1.9152 11.7671 2.01666 10.8431C2.10452 10.1619 2.42289 9.53132 2.91883 9.05614L4.83653 7.13712C5.22698 6.74655 5.22698 6.11343 4.83653 5.72286C4.44596 5.33241 3.81284 5.33241 3.42227 5.72286L1.54526 7.60056C0.68966 8.42562 0.15009 9.52429 0.0202843 10.7058C-0.222167 13.3668 1.73848 15.7206 4.39954 15.9631C5.82859 16.0933 7.24173 15.5824 8.25714 14.5685L10.2629 12.5635C10.6533 12.1729 10.6533 11.5398 10.2629 11.1492C9.87229 10.7587 9.23917 10.7587 8.8486 11.1492L6.93958 13.0575Z" fill="#D1D5DB"/>
<path id="Vector_2" d="M14.1076 0.977953C12.1164 -0.485009 9.35132 -0.255653 7.62837 1.5154L5.74067 3.40375C5.35022 3.79432 5.35022 4.42744 5.74067 4.81802C6.13124 5.20846 6.76436 5.20846 7.15493 4.81802L9.07264 2.90231C10.1082 1.83127 11.7837 1.71062 12.962 2.62226C14.1748 3.61676 14.3518 5.40613 13.3573 6.61895C13.2991 6.68993 13.2375 6.75804 13.1727 6.82305L11.167 8.82877C10.7766 9.21934 10.7766 9.85246 11.167 10.243C11.5576 10.6335 12.1907 10.6335 12.5813 10.243L14.587 8.23731C16.4752 6.34302 16.4704 3.27666 14.5761 1.3884C14.4289 1.24169 14.2724 1.1046 14.1076 0.977953Z" fill="#D1D5DB"/>
<path id="Vector_3" d="M5.74067 8.83056L8.84828 5.72295C9.23889 5.33234 9.87216 5.33234 10.2628 5.72295C10.6534 6.11355 10.6534 6.74683 10.2628 7.13743L7.15515 10.245C6.76455 10.6356 6.13127 10.6356 5.74067 10.245C5.35006 9.85444 5.35006 9.22116 5.74067 8.83056Z" fill="#D1D5DB"/>
</g>
</svg>
