<svg width="16" height="17" viewBox="0 0 16 17" fill="none" xmlns="http://www.w3.org/2000/svg">
<g id="icon/more-horizontal">
<path id="Vector" d="M7.99992 9.16668C8.36811 9.16668 8.66659 8.8682 8.66659 8.50001C8.66659 8.13182 8.36811 7.83334 7.99992 7.83334C7.63173 7.83334 7.33325 8.13182 7.33325 8.50001C7.33325 8.8682 7.63173 9.16668 7.99992 9.16668Z" stroke="white" stroke-width="2" stroke-linecap="round" stroke-linejoin="round"/>
<path id="Vector_2" d="M12.6667 9.16668C13.0349 9.16668 13.3333 8.8682 13.3333 8.50001C13.3333 8.13182 13.0349 7.83334 12.6667 7.83334C12.2985 7.83334 12 8.13182 12 8.50001C12 8.8682 12.2985 9.16668 12.6667 9.16668Z" stroke="white" stroke-width="2" stroke-linecap="round" stroke-linejoin="round"/>
<path id="Vector_3" d="M3.33341 9.16668C3.7016 9.16668 4.00008 8.8682 4.00008 8.50001C4.00008 8.13182 3.7016 7.83334 3.33341 7.83334C2.96522 7.83334 2.66675 8.13182 2.66675 8.50001C2.66675 8.8682 2.96522 9.16668 3.33341 9.16668Z" stroke="white" stroke-width="2" stroke-linecap="round" stroke-linejoin="round"/>
</g>
</svg>
