<svg width="16" height="16" viewBox="0 0 16 16" fill="none" xmlns="http://www.w3.org/2000/svg">
<g id="calendar-lines 1" clip-path="url(#clip0_1228_283)">
<path id="Vector" d="M0.72728 5.57575V4.96969C0.72728 3.29878 2.08667 1.93939 3.75758 1.93939H4.36364V1.33333C4.36364 0.99878 4.63455 0.727264 4.9697 0.727264C5.30486 0.727264 5.57576 0.99878 5.57576 1.33333V1.93939H10.4242V1.33333C10.4242 0.99878 10.6952 0.727264 11.0303 0.727264C11.3655 0.727264 11.6364 0.99878 11.6364 1.33333V1.93939H12.2424C13.9133 1.93939 15.2727 3.29878 15.2727 4.96969V5.57575H0.72728ZM15.2727 6.78787V12.2424C15.2727 13.9133 13.9133 15.2727 12.2424 15.2727H3.75758C2.08667 15.2727 0.72728 13.9133 0.72728 12.2424V6.78787H15.2727ZM8.00001 12.2424C8.00001 11.9079 7.7291 11.6364 7.39395 11.6364H4.36364C4.02849 11.6364 3.75758 11.9079 3.75758 12.2424C3.75758 12.577 4.02849 12.8485 4.36364 12.8485H7.39395C7.7291 12.8485 8.00001 12.577 8.00001 12.2424ZM12.2424 9.81817C12.2424 9.48363 11.9715 9.21211 11.6364 9.21211H4.36364C4.02849 9.21211 3.75758 9.48363 3.75758 9.81817C3.75758 10.1527 4.02849 10.4242 4.36364 10.4242H11.6364C11.9715 10.4242 12.2424 10.1527 12.2424 9.81817Z" fill="#D1D5DB"/>
</g>
<defs>
<clipPath id="clip0_1228_283">
<rect width="14.5455" height="14.5455" fill="white" transform="translate(0.72728 0.727264)"/>
</clipPath>
</defs>
</svg>
