<svg width="16" height="16" viewBox="0 0 16 16" fill="none" xmlns="http://www.w3.org/2000/svg">
<g id="vuesax/bulk/timer">
<g id="timer">
<path id="Vector" d="M8.00006 14.6667C11.1923 14.6667 13.7801 12.0789 13.7801 8.88669C13.7801 5.69448 11.1923 3.10669 8.00006 3.10669C4.80786 3.10669 2.22006 5.69448 2.22006 8.88669C2.22006 12.0789 4.80786 14.6667 8.00006 14.6667Z" fill="#D1D5DB"/>
<path id="Vector_2" d="M8 9.16668C7.72667 9.16668 7.5 8.94001 7.5 8.66668V5.33334C7.5 5.06001 7.72667 4.83334 8 4.83334C8.27333 4.83334 8.5 5.06001 8.5 5.33334V8.66668C8.5 8.94001 8.27333 9.16668 8 9.16668Z" fill="#2E3745"/>
<path id="Vector_3" d="M9.92644 2.30001H6.07311C5.80644 2.30001 5.59311 2.08668 5.59311 1.82001C5.59311 1.55334 5.80644 1.33334 6.07311 1.33334H9.92644C10.1931 1.33334 10.4064 1.54668 10.4064 1.81334C10.4064 2.08001 10.1931 2.30001 9.92644 2.30001Z" fill="#D1D5DB"/>
</g>
</g>
</svg>
