<svg width="18" height="18" viewBox="0 0 18 18" fill="none" xmlns="http://www.w3.org/2000/svg">
<g id="2 User 1">
<g id="Iconly/Light/2-User">
<g id="2-User">
<path id="Stroke-1" fill-rule="evenodd" clip-rule="evenodd" d="M7.19351 11.4051C9.96026 11.4051 12.325 11.8244 12.325 13.4991C12.325 15.1739 9.97601 15.6051 7.19351 15.6051C4.42601 15.6051 2.06201 15.1896 2.06201 13.5141C2.06201 11.8386 4.41026 11.4051 7.19351 11.4051Z" stroke="#747982" stroke-width="1.5" stroke-linecap="round" stroke-linejoin="round"/>
<path id="Stroke-3" fill-rule="evenodd" clip-rule="evenodd" d="M7.19355 9.01485C5.37705 9.01485 3.90405 7.5426 3.90405 5.7261C3.90405 3.9096 5.37705 2.43735 7.19355 2.43735C9.0093 2.43735 10.4823 3.9096 10.4823 5.7261C10.4891 7.53585 9.02655 9.0081 7.2168 9.01485H7.19355Z" stroke="#747982" stroke-width="1.5" stroke-linecap="round" stroke-linejoin="round"/>
<path id="Stroke-5" d="M12.3623 8.1612C13.5631 7.99245 14.4878 6.96195 14.4901 5.7147C14.4901 4.48545 13.5938 3.46545 12.4186 3.2727" stroke="#747982" stroke-width="1.5" stroke-linecap="round" stroke-linejoin="round"/>
<path id="Stroke-7" d="M13.9465 11.0492C15.1098 11.2224 15.922 11.6304 15.922 12.4704C15.922 13.0487 15.5395 13.4237 14.9215 13.6584" stroke="#747982" stroke-width="1.5" stroke-linecap="round" stroke-linejoin="round"/>
</g>
</g>
</g>
</svg>
