<svg width="18" height="18" viewBox="0 0 18 18" fill="none" xmlns="http://www.w3.org/2000/svg">
<g id="Filter">
<path id="Vector" d="M15.826 5.96314V12.0362C15.826 14.1588 14.3275 15.48 12.207 15.48H6.48496C4.36442 15.48 2.86597 14.1588 2.86597 12.0354V5.96314C2.86597 3.8405 4.36442 2.51999 6.48496 2.51999H12.207C14.3275 2.51999 15.826 3.84681 15.826 5.96314Z" stroke="#DD5313" stroke-width="1.44" stroke-linecap="round" stroke-linejoin="round"/>
<path id="Vector_2" d="M6.25073 6.9244C6.25073 6.40179 6.67456 5.97797 7.19717 5.97797H11.495C12.0176 5.97797 12.4414 6.40179 12.4414 6.9244V7.40497C12.4414 7.78118 12.2817 8.14054 12.0021 8.39275L10.2662 10.1091C10.152 10.212 10.0869 10.3584 10.0869 10.5126V11.2138C10.0869 11.4359 9.951 11.6356 9.74501 11.7175L9.0816 11.9816C8.72506 12.1238 8.33834 11.8611 8.33834 11.4779V10.3409C8.33834 10.1974 8.28089 10.0593 8.1793 9.95702L6.64023 8.58679C6.39084 8.33738 6.25073 7.9997 6.25073 7.64734V6.9244Z" stroke="#DD5313" stroke-width="1.44" stroke-linecap="round" stroke-linejoin="round"/>
</g>
</svg>
