<svg width="18" height="18" viewBox="0 0 18 18" fill="none" xmlns="http://www.w3.org/2000/svg">
<g id="Roadmap">
<path id="Vector" d="M9 15.2058V2.24579" stroke="#747982" stroke-width="1.44" stroke-linecap="round" stroke-linejoin="round"/>
<path id="Vector_2" d="M5.68469 8.75281C5.68469 7.95752 5.03998 7.31281 4.24469 7.31281C3.4494 7.31281 2.80469 7.95752 2.80469 8.75281C2.80469 9.5481 3.4494 10.1928 4.24469 10.1928C5.03998 10.1928 5.68469 9.5481 5.68469 8.75281Z" stroke="#747982" stroke-width="1.44"/>
<path id="Vector_3" d="M7.9397 8.75284H8.9999" stroke="#747982" stroke-width="1.44" stroke-linecap="round" stroke-linejoin="round"/>
<path id="Vector_4" d="M5.68481 8.75284H6.55194" stroke="#747982" stroke-width="1.44" stroke-linecap="round" stroke-linejoin="round"/>
<path id="Vector_5" d="M12.3153 5.02664C12.3153 4.23135 12.96 3.58664 13.7553 3.58664C14.5506 3.58664 15.1953 4.23135 15.1953 5.02664C15.1953 5.82193 14.5506 6.46664 13.7553 6.46664C12.96 6.46664 12.3153 5.82193 12.3153 5.02664Z" stroke="#747982" stroke-width="1.44"/>
<path id="Vector_6" d="M10.0604 5.02665L9.00024 5.02664" stroke="#747982" stroke-width="1.44" stroke-linecap="round" stroke-linejoin="round"/>
<path id="Vector_7" d="M12.3152 5.02665L11.448 5.02664" stroke="#747982" stroke-width="1.44" stroke-linecap="round" stroke-linejoin="round"/>
<path id="Vector_8" d="M12.3153 12.4249C12.3153 11.6296 12.96 10.9849 13.7553 10.9849C14.5506 10.9849 15.1953 11.6296 15.1953 12.4249C15.1953 13.2202 14.5506 13.8649 13.7553 13.8649C12.96 13.8649 12.3153 13.2202 12.3153 12.4249Z" stroke="#747982" stroke-width="1.44"/>
<path id="Vector_9" d="M10.0604 12.4249H9.00024" stroke="#747982" stroke-width="1.44" stroke-linecap="round" stroke-linejoin="round"/>
<path id="Vector_10" d="M12.3152 12.4249H11.448" stroke="#747982" stroke-width="1.44" stroke-linecap="round" stroke-linejoin="round"/>
</g>
</svg>
