<svg width="18" height="18" viewBox="0 0 18 18" fill="none" xmlns="http://www.w3.org/2000/svg">
<g id="3 User">
<g id="Iconly/Light/3-User">
<g id="3-User">
<path id="Stroke-1" d="M13.4158 8.17252C14.462 8.02552 15.2675 7.12852 15.2698 6.04177C15.2698 4.97077 14.489 4.08277 13.4653 3.91477" stroke="#747982" stroke-width="1.5" stroke-linecap="round" stroke-linejoin="round"/>
<path id="Stroke-3" d="M14.7964 10.6877C15.8096 10.8392 16.5169 11.194 16.5169 11.9252C16.5169 12.4285 16.1839 12.7555 15.6454 12.961" stroke="#747982" stroke-width="1.5" stroke-linecap="round" stroke-linejoin="round"/>
<path id="Stroke-5" fill-rule="evenodd" clip-rule="evenodd" d="M8.91505 10.9978C6.50455 10.9978 4.4458 11.3631 4.4458 12.8218C4.4458 14.2798 6.4918 14.6556 8.91505 14.6556C11.3256 14.6556 13.3836 14.2941 13.3836 12.8346C13.3836 11.3751 11.3383 10.9978 8.91505 10.9978Z" stroke="#747982" stroke-width="1.5" stroke-linecap="round" stroke-linejoin="round"/>
<path id="Stroke-7" fill-rule="evenodd" clip-rule="evenodd" d="M8.91507 8.91592C10.4968 8.91592 11.7793 7.63417 11.7793 6.05167C11.7793 4.46992 10.4968 3.18742 8.91507 3.18742C7.33332 3.18742 6.0508 4.46992 6.0508 6.05167C6.04482 7.62817 7.31757 8.91067 8.89407 8.91592H8.91507Z" stroke="#747982" stroke-width="1.5" stroke-linecap="round" stroke-linejoin="round"/>
<path id="Stroke-9" d="M4.41357 8.17252C3.36657 8.02552 2.56182 7.12852 2.55957 6.04177C2.55957 4.97077 3.34032 4.08277 4.36407 3.91477" stroke="#747982" stroke-width="1.5" stroke-linecap="round" stroke-linejoin="round"/>
<path id="Stroke-11" d="M3.033 10.6877C2.01975 10.8392 1.3125 11.194 1.3125 11.9252C1.3125 12.4285 1.6455 12.7555 2.184 12.961" stroke="#747982" stroke-width="1.5" stroke-linecap="round" stroke-linejoin="round"/>
</g>
</g>
</g>
</svg>
